# Blender 4.1.1
# www.blender.org
mtllib shotgun.mtl
o çƒ
v 0.000000 0.866025 -0.500000
v 0.866025 -0.000000 0.500000
v 0.866025 -0.000000 -0.500000
v -0.000000 -0.866025 0.500000
v -0.000000 -0.866025 -0.500000
v -0.866025 0.000000 0.500000
v -0.866025 0.000000 -0.500000
v 0.000000 0.866025 0.500000
v 0.000000 0.000000 -1.000000
v -0.000000 -0.494872 0.714285
v 0.494872 -0.000000 0.714285
v 0.000000 0.494872 0.714285
v -0.494872 0.000000 0.714285
v -0.584902 0.000000 0.914285
v -0.000000 -0.584902 0.914285
v 0.584902 -0.000000 0.914285
v 0.000000 0.584902 0.914285
v -0.622216 0.000000 0.914285
v -0.000000 -0.622216 0.914285
v 0.622216 -0.000000 0.914285
v 0.000000 0.622216 0.914285
v -0.000000 -0.368412 0.602696
v 0.368412 -0.000000 0.602696
v 0.000000 0.368412 0.602696
v -0.368412 0.000000 0.602696
v -0.368412 -0.000000 -0.221593
v 0.000000 -0.368412 -0.221593
v 0.368412 -0.000000 -0.221593
v 0.000000 0.368412 -0.221593
vn 0.4472 0.4472 -0.7746
vn 0.7071 0.7071 -0.0000
vn 0.4472 -0.4472 0.7746
vn 0.4472 -0.4472 -0.7746
vn 0.7071 -0.7071 -0.0000
vn -0.4472 -0.4472 0.7746
vn -0.4472 -0.4472 -0.7746
vn -0.7071 -0.7071 -0.0000
vn -0.4472 0.4472 -0.7746
vn -0.7071 0.7071 -0.0000
vn 0.4472 0.4472 0.7746
vn 0.6448 -0.6448 -0.4105
vn -0.4472 0.4472 0.7746
vn -0.6347 0.6347 0.4409
vn 0.6448 0.6448 -0.4105
vn -0.6448 -0.6448 -0.4105
vn -0.6448 0.6448 -0.4105
vn -0.0000 -0.0000 1.0000
vn -0.6347 -0.6347 0.4409
vn 0.6347 0.6347 0.4409
vn 0.6347 -0.6347 0.4409
vt 0.625000 0.016336
vt 0.516336 0.156621
vt 0.733664 0.156621
vt 0.516337 0.334067
vt 0.766337 0.334067
vt 0.937094 0.394189
vt 0.983664 0.334067
vt 0.875000 0.016336
vt 0.766337 0.156620
vt 0.983664 0.156621
vt 0.016336 0.334068
vt 0.187093 0.394189
vt 0.233664 0.334068
vt 0.125000 0.016336
vt 0.016336 0.156621
vt 0.233664 0.156621
vt 0.375000 0.016336
vt 0.266337 0.156621
vt 0.483664 0.156621
vt 0.266337 0.334067
vt 0.562907 0.394189
vt 0.733664 0.334068
vt 0.812907 0.394189
vt 0.953072 0.433110
vt 0.437094 0.394189
vt 0.483664 0.334067
vt 0.801610 0.437792
vt 0.921226 0.499395
vt 0.948390 0.437792
vt 0.703072 0.433110
vt 0.687094 0.394189
vt 0.062906 0.394189
vt 0.203072 0.433110
vt 0.296928 0.433110
vt 0.453072 0.433110
vt 0.198390 0.437792
vt 0.046928 0.433110
vt 0.051610 0.437792
vt 0.796928 0.433110
vt 0.698390 0.437792
vt 0.546928 0.433110
vt 0.551610 0.437792
vt 0.448390 0.437792
vt 0.301610 0.437792
vt 0.671226 0.499395
vt 0.171226 0.499395
vt 0.301237 0.697611
vt 0.447504 0.790063
vt 0.301237 0.790063
vt 0.421226 0.499395
vt 0.539957 0.697611
vt 0.539957 0.790063
vt 0.686224 0.697611
vt 0.539957 0.551343
vt 0.447504 0.697611
vt 0.447504 0.551343
vt 0.539957 0.936330
vt 0.312907 0.394189
vt 0.828774 0.499395
vt 0.578774 0.499395
vt 0.078774 0.499395
vt 0.328774 0.499395
vt 0.686224 0.790063
vt 0.447504 0.936330
s 0
usemtl material
f 9/1/1 1/2/1 3/3/1
f 8/4/2 3/3/2 1/2/2
f 2/5/3 10/6/3 4/7/3
f 9/8/4 3/9/4 5/10/4
f 3/9/5 4/7/5 5/10/5
f 4/11/6 13/12/6 6/13/6
f 9/14/7 5/15/7 7/16/7
f 4/11/8 7/16/8 5/15/8
f 9/17/9 7/18/9 1/19/9
f 6/20/10 1/19/10 7/18/10
f 12/21/11 2/22/11 8/4/11
f 11/23/12 19/24/12 10/6/12
f 6/20/13 12/25/13 8/26/13
f 16/27/14 22/28/14 15/29/14
f 12/21/15 20/30/15 11/31/15
f 10/32/16 18/33/16 13/12/16
f 12/25/17 18/34/17 21/35/17
f 14/36/18 19/37/18 15/38/18
f 15/29/18 20/39/18 16/27/18
f 16/40/18 21/41/18 17/42/18
f 17/43/18 18/34/18 14/44/18
f 17/42/19 23/45/19 16/40/19
f 15/38/20 25/46/20 14/36/20
f 24/47/8 28/48/8 23/49/8
f 14/44/21 24/50/21 17/43/21
f 28/48/18 26/51/18 27/52/18
f 25/53/2 27/52/2 26/51/2
f 25/54/5 29/55/5 24/56/5
f 22/57/10 28/48/10 27/52/10
f 8/4/2 2/22/2 3/3/2
f 2/5/3 11/23/3 10/6/3
f 3/9/5 2/5/5 4/7/5
f 4/11/6 10/32/6 13/12/6
f 4/11/8 6/13/8 7/16/8
f 6/20/10 8/26/10 1/19/10
f 12/21/11 11/31/11 2/22/11
f 11/23/12 20/39/12 19/24/12
f 6/20/13 13/58/13 12/25/13
f 16/27/14 23/59/14 22/28/14
f 12/21/15 21/41/15 20/30/15
f 10/32/16 19/37/16 18/33/16
f 12/25/17 13/58/17 18/34/17
f 14/36/18 18/33/18 19/37/18
f 15/29/18 19/24/18 20/39/18
f 16/40/18 20/30/18 21/41/18
f 17/43/18 21/35/18 18/34/18
f 17/42/19 24/60/19 23/45/19
f 15/38/20 22/61/20 25/46/20
f 24/47/8 29/55/8 28/48/8
f 14/44/21 25/62/21 24/50/21
f 28/48/18 29/55/18 26/51/18
f 25/53/2 22/63/2 27/52/2
f 25/54/5 26/51/5 29/55/5
f 22/57/10 23/64/10 28/48/10
